<?xml version="1.0" encoding="UTF-8" standalone="no"?>
<svg
   xmlns:dc="http://purl.org/dc/elements/1.1/"
   xmlns:cc="http://creativecommons.org/ns#"
   xmlns:rdf="http://www.w3.org/1999/02/22-rdf-syntax-ns#"
   xmlns:svg="http://www.w3.org/2000/svg"
   xmlns="http://www.w3.org/2000/svg"
   xmlns:sodipodi="http://sodipodi.sourceforge.net/DTD/sodipodi-0.dtd"
   xmlns:inkscape="http://www.inkscape.org/namespaces/inkscape"
   inkscape:version="1.0 (6e3e5246a0, 2020-05-07)"
   sodipodi:docname="FONTESWW.png.svg"
   viewBox="0 0 1352 98.144196"
   height="98.144196"
   width="1352"
   id="svg2"
   version="1.1">
  <metadata
     id="metadata8">
    <rdf:RDF>
      <cc:Work
         rdf:about="">
        <dc:format>image/svg+xml</dc:format>
        <dc:type
           rdf:resource="http://purl.org/dc/dcmitype/StillImage" />
        <dc:title></dc:title>
      </cc:Work>
    </rdf:RDF>
  </metadata>
  <defs
     id="defs6" />
  <sodipodi:namedview
     inkscape:current-layer="g10"
     inkscape:window-maximized="1"
     inkscape:window-y="28"
     inkscape:window-x="0"
     inkscape:cy="244.79714"
     inkscape:cx="662.57936"
     inkscape:zoom="1.2587464"
     fit-margin-bottom="0"
     fit-margin-right="0"
     fit-margin-left="0"
     fit-margin-top="0"
     showgrid="false"
     id="namedview4"
     inkscape:window-height="1026"
     inkscape:window-width="1920"
     inkscape:pageshadow="2"
     inkscape:pageopacity="0"
     guidetolerance="10"
     gridtolerance="10"
     objecttolerance="10"
     borderopacity="1"
     bordercolor="#666666"
     pagecolor="#ffffff" />
  <g
     transform="translate(-23.420641,187.79714)"
     id="g10"
     inkscape:label="Image"
     inkscape:groupmode="layer">
    <path
       id="path20"
       d="m 24.087308,-90.37041 c -0.366667,-0.36666 -0.666667,-6.891663 -0.666667,-14.5 v -13.83333 l 29.75,-0.0997 c 16.3625,-0.0548 30.872637,-0.41205 32.244749,-0.79385 1.372112,-0.38179 2.626008,-1.37574 2.786437,-2.20878 0.160429,-0.83304 -3.749725,-5.64552 -8.689232,-10.6944 -14.352875,-14.67068 -19.676728,-26.77158 -16.686624,-37.92802 1.958353,-7.30684 4.793003,-11.44899 9.795262,-14.31336 l 4.299408,-2.46191 h 101.999999 102 l 15.1189,45.21443 c 8.3154,24.86794 15.4029,44.930438 15.75,44.583334 0.34711,-0.347104 0.6311,-20.806094 0.6311,-45.464434 v -44.83333 h 32.2899 c 33.9956,0 38.90391,0.50742 47.54351,4.91501 4.7713,2.43414 9.77252,7.4773 12.32047,12.42379 2.63341,5.11241 3.52023,16.17629 1.79304,22.36976 -1.93703,6.94591 -9.38718,14.02784 -18.19049,17.29144 -3.70896,1.375 -6.74646,2.7557 -6.75,3.06821 -0.004,0.31252 1.43987,2.45002 3.20757,4.75 l 3.214,4.18179 h 25.786 25.786 v 14.5 14.5 h -30.42533 -30.42533 l -14.82467,-15.49964 c -8.15357,-8.5248 -15.16217,-15.4998 -15.57467,-15.5 -0.4125,-2e-4 -0.75,6.97464 -0.75,15.49964 v 15.5 h -35.42245 -35.42245 l -1.21173,-3.75 c -0.66645,-2.0625 -2.08368,-6.1125 -3.1494,-9 l -1.93767,-5.25 h -14.45953 c -10.70852,0 -14.55315,0.32427 -14.82038,1.25 -0.19846,0.6875 -1.58,4.7375 -3.07007,9 l -2.70923,7.75 h -17.39854 c -9.5692,0 -17.39855,-0.1492 -17.39855,-0.33156 0,-0.18236 4.94935,-15.36986 10.99856,-33.75 6.04921,-18.38014 10.99882,-33.64344 10.99913,-33.91844 3.2e-4,-0.275 -8.32404,-0.56728 -18.49856,-0.64952 l -18.49913,-0.14952 v 34.39952 34.39952 h -16 -16 l -3e-4,-34.25 -2.9e-4,-34.25 -22.24971,0.0859 c -12.23733,0.0473 -23.2622,0.15976 -24.4997,0.25 -4.43591,0.32345 -2.55717,4.09916 7,14.0679 12.36993,12.90263 16.23857,20.31559 16.18757,31.01802 -0.0536,11.24767 -3.92932,16.971106 -14.22459,21.00604 -5.05584,1.98149 -7.15835,2.0721 -48.083333,2.0721 -23.537972,0 -43.096313,-0.3 -43.462979,-0.66667 z m 245.316562,-37.58333 c -0.11788,-1.75776 -12.11833,-35.28997 -12.69326,-35.46809 -0.43448,-0.1346 -2.51723,4.5844 -4.62834,10.48668 -2.1111,5.90228 -4.64103,12.75641 -5.62206,15.23141 -0.98104,2.475 -2.07485,5.7375 -2.43069,7.25 l -0.64698,2.75 h 13.01905 c 7.16048,0 13.01151,-0.1125 13.00228,-0.25 z m 106.38191,-18.82258 c 2.20958,-1.73805 2.63486,-2.8679 2.63486,-7 0,-8.6345 -3.39336,-10.24494 -20.5,-9.72901 l -10,0.30159 -0.29497,7.91161 c -0.16224,4.35138 -0.0639,8.51388 0.21861,9.25 0.39074,1.01826 3.47875,1.33839 12.91012,1.33839 11.02703,0 12.68761,-0.22897 15.03138,-2.07258 z m 126.80441,55.32258 c -0.49545,-0.9625 -5.04785,-14.575 -10.11645,-30.25 -5.06861,-15.675 -9.91521,-30.4125 -10.77023,-32.75 l -1.55459,-4.25 h -9.86414 -9.86414 v -14.51913 -14.51913 l 22.1121,0.26913 22.1121,0.26913 1.78486,5 c 0.98167,2.75 3.87837,11.6375 6.43711,19.75 2.55874,8.1125 4.98864,14.75 5.39977,14.75 0.41113,0 2.41919,-6.1875 4.46236,-13.75 2.04317,-7.5625 4.5234,-16.45 5.51161,-19.75 l 1.79674,-6 14.47864,-0.27551 14.47863,-0.27552 6.31632,19.77552 c 3.47398,10.87653 6.65069,20.13386 7.05937,20.57184 0.68053,0.72933 2.97132,-8.9998 6.66257,-28.29633 0.78907,-4.125 1.86448,-8.5125 2.38981,-9.75 l 0.95513,-2.25 h 45.41445 c 35.42028,0 45.51539,0.27508 45.87311,1.25 0.25226,0.6875 7.16291,21.275 15.35699,45.75 l 14.89833,44.5 0.5,-45.5 0.5,-45.5 h 34 c 29.58157,0 34.73604,0.2278 39.66386,1.75289 7.39243,2.28787 14.62816,8.10012 18.152,14.58098 2.40303,4.41955 2.83253,6.39663 2.92961,13.48569 0.0923,6.73618 -0.31326,9.18902 -2.14456,12.97198 -3.22085,6.6534 -12.42059,13.34628 -20.84434,15.16444 -3.73103,0.80529 -3.47369,1.95907 1.66351,7.45847 l 3.02037,3.23331 26.37804,-0.32388 c 29.3653,-0.36056 31.27362,-0.74507 28.05754,-5.65343 -0.91797,-1.40099 -4.3466,-5.02622 -7.61918,-8.05605 -11.48051,-10.62892 -18.57976,-24.51841 -17.44202,-34.12482 1.21073,-10.22271 6.94353,-17.57804 15.56754,-19.97355 2.07187,-0.57551 17.18389,-1.00726 35.36763,-1.01045 l 31.75,-0.006 v 14.5 14.5 h -16.875 c -9.28125,0 -18.25248,0.2755 -19.93607,0.61221 -5.55115,1.11023 -4.79351,3.07605 5.1249,13.29746 12.32897,12.7056 17.13061,21.81653 17.13061,32.50467 0,10.76126 -4.45521,16.98346 -14.75172,20.60239 -5.29456,1.86089 -8.34396,1.98389 -49.41774,1.99331 l -43.77498,0.01 -5.51942,-5.97962 c -3.03569,-3.288795 -9.78569,-10.31637 -15,-15.61684 l -9.48058,-9.63717 -0.5,15.3568 -0.5,15.35679 h -35.41081 -35.41082 l -3.12008,-8.5 -3.12009,-8.5 -14.21622,-0.27744 -14.21622,-0.27744 -1.73514,4.27744 c -0.95433,2.35259 -2.41812,6.30244 -3.25288,8.77744 l -1.51774,4.5 -17.25,0.27361 c -11.60935,0.18415 -17.25,-0.0715 -17.25,-0.78174 0,-1.01139 7.30958,-23.74642 16.61108,-51.66554 2.41391,-7.24551 4.38892,-13.90889 4.38892,-14.80749 0,-1.302 -0.85608,-1.57138 -4.215,-1.32634 l -4.21501,0.3075 -3.15391,12.5 c -1.73464,6.875 -5.56266,22.29817 -8.50671,34.27371 l -5.3528,21.77371 -15.946,-0.27371 -15.946,-0.27371 -0.7392,-2.5 c -0.40656,-1.375 -2.39856,-8.125 -4.42666,-15 -5.38344,-18.24912 -6.65927,-22.17277 -7.0747,-21.75734 -0.20472,0.20472 -2.42399,8.44637 -4.9317,18.31478 -2.50771,9.86841 -4.79969,18.73006 -5.09328,19.69256 -0.47822,1.56778 -2.13704,1.75 -15.93123,1.75 -13.65439,0 -15.49941,-0.19811 -16.29825,-1.75 z m 158.83045,-37.03408 c 0,-0.66728 -9.90495,-30.81984 -11.56824,-35.21592 -0.6469,-1.70976 -1.94525,1.25968 -8.7448,20 -2.49445,6.875 -4.84262,13.2875 -5.21816,14.25 -0.62909,1.61238 0.34792,1.75 12.42421,1.75 7.20885,0 13.10699,-0.35284 13.10699,-0.78408 z m 107.65945,-18.44394 c 2.65871,-2.66311 2.35969,-11.19656 -0.4924,-14.0519 -2.05861,-2.06095 -3.12965,-2.22008 -14.9423,-2.22008 h -12.72475 l -0.29497,7.91161 c -0.16224,4.35138 -0.0501,8.54965 0.24911,9.32949 0.86737,2.26032 25.83775,1.40235 28.20531,-0.96912 z m 202.66168,55.97802 c -0.70044,-1.0987 -6.59193,-18.65596 -18.95906,-56.5 l -3.6764,-11.25 h -9.84284 -9.84283 v -14.51913 -14.51913 l 22.20663,0.26913 22.20663,0.26913 1.21883,4 c 6.15933,20.21396 11.22888,34.97398 11.97007,34.85088 0.49381,-0.082 2.6031,-6.38202 4.6873,-14 2.0842,-7.61798 4.53532,-16.4499 5.44692,-19.62649 l 1.65746,-5.7756 14.50242,0.2756 14.5024,0.27561 6.6603,20.38159 c 3.6632,11.20988 6.9,19.98488 7.193,19.5 0.293,-0.48487 1.291,-4.70659 2.2179,-9.38159 0.9269,-4.675 2.2891,-10.975 3.0271,-14 0.738,-3.025 1.86,-8.0875 2.4933,-11.25 l 1.1515,-5.75 h 25.4291 25.4291 v 17 17 h 12.4758 12.4758 l 0.2742,-16.75 0.2742,-16.75 35.25,-0.26279 35.25,-0.2628 v 14.45378 c 0,7.94958 0.3808,14.6891 0.8461,14.97672 0.7713,0.47667 19.651,-24.93093 20.853,-28.06303 0.6647,-1.73225 31.3009,-1.98855 31.3009,-0.26186 0,1.00617 -10.2555,15.12614 -27.7012,38.13934 l -7.3679,9.71935 8.2409,10.03065 8.2408,10.03064 h 13.7937 13.7937 v -34.5 -34.5 h 16 16 v 17 17 h 12.4758 12.4758 l 0.2742,-16.75 0.2742,-16.75 29.25,-0.2651 29.25,-0.26511 v 14.48608 14.48608 l -13.25,0.27902 -13.25,0.27903 -0.2632,34.27533 -0.2631,34.27532 -15.7369,-0.27532 -15.7368,-0.27533 -0.2736,-17.25 -0.2736,-17.25 h -12.4764 -12.4764 v 17.5 17.5 h -34.4551 -34.4552 l -11.7937,-13.90524 c -6.4865,-7.64788 -12.1317,-13.69633 -12.5448,-13.44098 -0.4132,0.25534 -0.7512,6.52412 -0.7512,13.93063 v 13.46638 l -15.75,-0.2754 -15.75,-0.27539 -0.2632,-34.31237 -0.2632,-34.31238 -3.2368,0.31238 -3.2368,0.31237 -0.2632,34.27533 -0.2631,34.27532 -15.7369,-0.27532 -15.7368,-0.27533 -0.2736,-17.25 -0.2736,-17.25 h -12.4764 -12.4764 v 17.5 17.5 h -16 -16 l -0.089,-22.75 -0.09,-22.75 -5.7042,22.5 -5.7042,22.5 h -15.9053 -15.9054 l -2.864,-9.5 c -1.5753,-5.225 -4.2654,-14.13928 -5.978,-19.8095 -1.7982,-5.95361 -3.41,-9.75623 -3.8147,-9 -0.3855,0.72022 -2.5924,8.9595 -4.9042,18.3095 -2.3119,9.35 -4.4223,17.7875 -4.6897,18.75 -0.436,1.5697 -2.0701,1.75 -15.85973,1.75 -11.2072,0 -15.58956,-0.33876 -16.1705,-1.25 z"
       style="fill:#ffffff" />
  </g>
</svg>
